HIERARCHY
ROOT root
{
  OFFSET 0 93.2929 0
  CHANNELS 6 Xposition Yposition Zposition Zrotation Xrotation Yrotation
  JOINT torso_1
  {
    OFFSET 0 5.07867 -1.15138
    CHANNELS 6 Xposition Yposition Zposition Zrotation Xrotation Yrotation
    JOINT torso_2
    {
      OFFSET 0 5.61661 1.07143
      CHANNELS 6 Xposition Yposition Zposition Zrotation Xrotation Yrotation
      JOINT torso_3
      {
        OFFSET -1.02604e-17 5.98978 0.11501
        CHANNELS 6 Xposition Yposition Zposition Zrotation Xrotation Yrotation
        JOINT torso_4
        {
          OFFSET -1.10457e-17 6.50583 -0.443523
          CHANNELS 6 Xposition Yposition Zposition Zrotation Xrotation Yrotation
          JOINT torso_5
          {
            OFFSET -1.97295e-17 7.60548 -1.50593
            CHANNELS 6 Xposition Yposition Zposition Zrotation Xrotation Yrotation
            JOINT torso_6
            {
              OFFSET -2.53307e-17 9.49737 -0.914492
              CHANNELS 6 Xposition Yposition Zposition Zrotation Xrotation Yrotation
              JOINT torso_7
              {
                OFFSET -2.90401e-17 10.5513 1.57691
                CHANNELS 6 Xposition Yposition Zposition Zrotation Xrotation Yrotation
                JOINT neck_1
                {
                  OFFSET -1.29193e-17 4.78644 0.715339
                  CHANNELS 6 Xposition Yposition Zposition Zrotation Xrotation Yrotation
                  JOINT neck_2
                  {
                    OFFSET -1.8116e-17 4.82109 0.421791
                    CHANNELS 6 Xposition Yposition Zposition Zrotation Xrotation Yrotation
                    JOINT head
                    {
                      OFFSET -2.00958e-17 4.83041 0.765062
                      CHANNELS 6 Xposition Yposition Zposition Zrotation Xrotation Yrotation
                      End Site
                      {
                        OFFSET 0 0.1 0
                      }
                    }
                  }
                }
                JOINT l_shoulder
                {
                  OFFSET 1.23299 -7.60731 7.53374
                  CHANNELS 6 Xposition Yposition Zposition Zrotation Xrotation Yrotation
                  JOINT l_up_arm
                  {
                    OFFSET 12.9547 3.2495 -3.26872
                    CHANNELS 6 Xposition Yposition Zposition Zrotation Xrotation Yrotation
                    JOINT l_low_arm
                    {
                      OFFSET 29.2081 0.0598081 0.137039
                      CHANNELS 6 Xposition Yposition Zposition Zrotation Xrotation Yrotation
                      JOINT l_hand
                      {
                        OFFSET 24.234 0.0496219 0.113701
                        CHANNELS 6 Xposition Yposition Zposition Zrotation Xrotation Yrotation
                        End Site
                        {
                          OFFSET 0.1 0 0
                        }
                      }
                    }
                  }
                }
                JOINT r_shoulder
                {
                  OFFSET -1.23299 -7.60729 7.53365
                  CHANNELS 6 Xposition Yposition Zposition Zrotation Xrotation Yrotation
                  JOINT r_up_arm
                  {
                    OFFSET -12.9547 3.2495 -3.26872
                    CHANNELS 6 Xposition Yposition Zposition Zrotation Xrotation Yrotation
                    JOINT r_low_arm
                    {
                      OFFSET -29.2081 0.0598081 0.137039
                      CHANNELS 6 Xposition Yposition Zposition Zrotation Xrotation Yrotation
                      JOINT r_hand
                      {
                        OFFSET -24.234 0.0496218 0.113702
                        CHANNELS 6 Xposition Yposition Zposition Zrotation Xrotation Yrotation
                        End Site
                        {
                          OFFSET -0.1 0 0
                        }
                      }
                    }
                  }
                }
              }
            }
          }
        }
      }
    }
  }
  JOINT l_up_leg
  {
    OFFSET 9.23673 -4.20556 2.0327
    CHANNELS 6 Xposition Yposition Zposition Zrotation Xrotation Yrotation
    JOINT l_low_leg
    {
      OFFSET -0.852353 -38.7721 -0.655187
      CHANNELS 6 Xposition Yposition Zposition Zrotation Xrotation Yrotation
      JOINT l_foot
      {
        OFFSET -2.32622 -40.4017 -6.04875
        CHANNELS 6 Xposition Yposition Zposition Zrotation Xrotation Yrotation
        JOINT l_toes
        {
          OFFSET 0.779096 -9.8844 12.4959
          CHANNELS 6 Xposition Yposition Zposition Zrotation Xrotation Yrotation
          End Site
          {
            OFFSET 0 0 0.1
          }
        }
      }
    }
  }
  JOINT r_up_leg
  {
    OFFSET -9.23673 -4.20556 2.0327
    CHANNELS 6 Xposition Yposition Zposition Zrotation Xrotation Yrotation
    JOINT r_low_leg
    {
      OFFSET 0.852353 -38.7721 -0.655187
      CHANNELS 6 Xposition Yposition Zposition Zrotation Xrotation Yrotation
      JOINT r_foot
      {
        OFFSET 2.32622 -40.4017 -6.04875
        CHANNELS 6 Xposition Yposition Zposition Zrotation Xrotation Yrotation
        JOINT r_toes
        {
          OFFSET -0.779096 -9.8844 12.4959
          CHANNELS 6 Xposition Yposition Zposition Zrotation Xrotation Yrotation
          End Site
          {
            OFFSET 0 0 0.1
          }
        }
      }
    }
  }
}
MOTION
Frames: 4
Frame Time: 0.016667
0 93.2929 0 -0 0 -0 0 5.07867 -1.15138 -0 0 -0 0 5.61661 1.07143 -0 0 -0 -1.02604e-17 5.98978 0.11501 -0 0 -0 -1.10457e-17 6.50583 -0.443523 -0 0 -0 -1.97295e-17 7.60548 -1.50593 -0 0 -0 -2.53307e-17 9.49737 -0.914492 -0 0 -0 -2.90401e-17 10.5513 1.57691 -0 0 -0 -1.29193e-17 4.78644 0.715339 -0 0 -0 -1.8116e-17 4.82109 0.421791 -0 0 -0 -2.00958e-17 4.83041 0.765062 -0 0 -0 1.23299 -7.60731 7.53374 -0 0 -0 12.9547 3.2495 -3.26872 -0 0 -0 29.2081 0.0598081 0.137039 -0 0 -0 24.234 0.0496219 0.113701 -0 0 -0 -1.23299 -7.60729 7.53365 -0 0 -0 -12.9547 3.2495 -3.26872 -0 0 -0 -29.2081 0.0598081 0.137039 -0 0 -0 -24.234 0.0496218 0.113702 -0 0 -0 9.23673 -4.20556 2.0327 -0 0 -0 -0.852353 -38.7721 -0.655187 -0 0 -0 -2.32622 -40.4017 -6.04875 -0 0 -0 0.779096 -9.8844 12.4959 -0 0 -0 -9.23673 -4.20556 2.0327 -0 0 -0 0.852353 -38.7721 -0.655187 -0 0 -0 2.32622 -40.4017 -6.04875 -0 0 -0 -0.779096 -9.8844 12.4959 -0 0 -0 
-18.2357 92.515 56.6015 -1.51851 -0.392546 8.86973 0 5.07867 -1.15138 -0.765652 -0.656999 -0.565912 0 5.61661 1.07143 -0.328607 0.0105305 -0.688905 -1.02604e-17 5.98978 0.11501 -0.0613562 0.855615 -0.575803 -1.10457e-17 6.50583 -0.443523 0.188604 1.94459 -0.542433 -1.97295e-17 7.60548 -1.50593 0.353887 2.10039 -0.63743 -2.53307e-17 9.49737 -0.914492 0.446227 2.22692 -1.02476 -2.90401e-17 10.5513 1.57691 -0.0689925 0.724777 0.0302555 -1.29193e-17 4.78644 0.715339 0.40153 -6.20348 -1.14335 -1.8116e-17 4.82109 0.421791 0.210004 -6.47362 -0.664201 -2.00958e-17 4.83041 0.765062 -0.0551795 -4.06958 2.81159 1.23299 -7.60731 7.53374 -2.69258 3.13802 -2.11857 12.9547 3.2495 -3.26872 -78.1095 18.0177 -8.04451 29.2081 0.0598081 0.137039 1.60268 -0.100234 -7.74635 24.234 0.0496219 0.113701 1.46275 -14.2605 -2.74297 -1.23299 -7.60729 7.53365 5.66069 4.33056 2.27768 -12.9547 3.2495 -3.26872 76.0309 15.2851 2.06889 -29.2081 0.0598081 0.137039 -1.64561 -0.10577 7.95381 -24.234 0.0496218 0.113702 2.33315 -18.1825 5.75145 9.23673 -4.20556 2.0327 2.58981 -1.74354 -4.68231 -0.852353 -38.7721 -0.655187 -0.235478 0.879081 -0.0135378 -2.32622 -40.4017 -6.04875 1.98061 -3.45857 15.1858 0.779096 -9.8844 12.4959 2.48481e-17 -7.95139e-16 1.2424e-17 -9.23673 -4.20556 2.0327 -4.10494 0.519829 16.8265 0.852353 -38.7721 -0.655187 0.758329 2.83219 0.0306965 2.32622 -40.4017 -6.04875 2.17585 -3.17157 -15.6437 -0.779096 -9.8844 12.4959 -8.1158e-16 -5.52356e-16 -1.27336e-14 
-18.1238 92.5123 56.4857 -1.54767 -0.375522 8.68322 0 5.07867 -1.15138 -0.712362 -0.627759 -0.577608 0 5.61661 1.07143 -0.284216 0.0330584 -0.695412 -1.02604e-17 5.98978 0.11501 -0.0294756 0.867015 -0.582844 -1.10457e-17 6.50583 -0.443523 0.208644 1.94276 -0.550051 -1.97295e-17 7.60548 -1.50593 0.359293 2.0865 -0.647854 -2.53307e-17 9.49737 -0.914492 0.434861 2.20107 -1.03147 -2.90401e-17 10.5513 1.57691 -0.0703019 0.72304 0.0281612 -1.29193e-17 4.78644 0.715339 0.414978 -6.29492 -1.03961 -1.8116e-17 4.82109 0.421791 0.16053 -6.45984 -0.617625 -2.00958e-17 4.83041 0.765062 -0.15783 -4.03396 2.86976 1.23299 -7.60731 7.53374 -2.76628 3.1743 -2.17641 12.9547 3.2495 -3.26872 -78.1627 17.8351 -8.08569 29.2081 0.0598081 0.137039 1.58474 -0.0979021 -7.65915 24.234 0.0496219 0.113701 1.5193 -14.1537 -2.71468 -1.23299 -7.60729 7.53365 5.56772 4.31984 2.26859 -12.9547 3.2495 -3.26872 75.9624 15.2877 2.09306 -29.2081 0.0598081 0.137039 -1.65691 -0.107295 8.00876 -24.234 0.0496218 0.113702 2.40034 -18.2656 5.8274 9.23673 -4.20556 2.0327 2.56187 -1.7937 -4.57919 -0.852353 -38.7721 -0.655187 -0.234873 0.876823 -0.0135076 -2.32622 -40.4017 -6.04875 1.92581 -3.48867 15.1854 0.779096 -9.8844 12.4959 2.48481e-17 -7.95139e-16 1.2424e-17 -9.23673 -4.20556 2.0327 -4.13155 0.372572 16.979 0.852353 -38.7721 -0.655187 0.766352 2.86216 0.030821 2.32622 -40.4017 -6.04875 2.15119 -3.10361 -15.6468 -0.779096 -9.8844 12.4959 -7.12436e-16 -5.55454e-16 -1.27398e-14 
-17.7962 92.4992 56.2098 -1.58219 -0.361786 8.51271 0 5.07867 -1.15138 -0.600925 -0.547644 -0.603905 0 5.61661 1.07143 -0.189967 0.0937271 -0.709436 -1.02604e-17 5.98978 0.11501 0.0401377 0.90107 -0.597495 -1.10457e-17 6.50583 -0.443523 0.25484 1.94353 -0.565054 -1.97295e-17 7.60548 -1.50593 0.376384 2.05897 -0.669623 -2.53307e-17 9.49737 -0.914492 0.417963 2.14773 -1.04771 -2.90401e-17 10.5513 1.57691 -0.0723155 0.723029 0.0274512 -1.29193e-17 4.78644 0.715339 0.429789 -6.40318 -0.912336 -1.8116e-17 4.82109 0.421791 0.0642879 -6.46324 -0.561489 -2.00958e-17 4.83041 0.765062 -0.367836 -4.04132 2.95354 1.23299 -7.60731 7.53374 -2.86848 3.23058 -2.26027 12.9547 3.2495 -3.26872 -78.3444 17.6828 -8.1972 29.2081 0.0598081 0.137039 1.56941 -0.0959312 -7.58466 24.234 0.0496219 0.113701 1.61329 -14.1413 -2.69889 -1.23299 -7.60729 7.53365 5.40109 4.31706 2.27354 -12.9547 3.2495 -3.26872 75.7425 15.2651 2.16255 -29.2081 0.0598081 0.137039 -1.66912 -0.108956 8.06813 -24.234 0.0496218 0.113702 2.51693 -18.3375 5.92448 9.23673 -4.20556 2.0327 2.40985 -1.94553 -4.53317 -0.852353 -38.7721 -0.655187 -0.247222 0.922942 -0.0141186 -2.32622 -40.4017 -6.04875 1.84205 -3.55808 15.1771 0.779096 -9.8844 12.4959 2.48481e-17 -7.95139e-16 1.2424e-17 -9.23673 -4.20556 2.0327 -4.28238 0.0626867 17.0928 0.852353 -38.7721 -0.655187 0.813866 3.0396 0.0314719 2.32622 -40.4017 -6.04875 2.12077 -2.99337 -15.6592 -0.779096 -9.8844 12.4959 -8.94282e-16 -5.51329e-16 -1.27269e-14 
